<?xml version="1.0" standalone="no"?>
<!DOCTYPE svg PUBLIC "-//W3C//DTD SVG 20010904//EN"
 "http://www.w3.org/TR/2001/REC-SVG-20010904/DTD/svg10.dtd">
<svg version="1.0" xmlns="http://www.w3.org/2000/svg"
 width="700.000000pt" height="700.000000pt" viewBox="0 0 700.000000 700.000000"
 preserveAspectRatio="xMidYMid meet">
<metadata>
Created by potrace 1.14, written by Peter Selinger 2001-2017
</metadata>
<g transform="translate(0.000000,700.000000) scale(0.100000,-0.100000)"
fill="#000000" stroke="none">
<path d="M1807 6224 c-1 -1 -42 -5 -91 -8 -49 -4 -93 -9 -97 -11 -3 -3 -27 -7
-53 -9 -45 -5 -165 -31 -196 -43 -8 -3 -20 -7 -27 -9 -54 -11 -143 -46 -143
-56 0 -4 -6 -5 -13 -2 -24 9 -341 -163 -426 -232 -98 -79 -151 -125 -203 -178
-73 -72 -187 -204 -196 -226 -3 -8 -9 -17 -12 -20 -4 -3 -25 -32 -46 -65 -57
-88 -62 -97 -75 -127 -6 -16 -16 -28 -22 -28 -6 0 -7 -3 -4 -6 4 -4 0 -19 -8
-33 -27 -49 -74 -157 -81 -187 -4 -16 -10 -33 -14 -39 -4 -5 -17 -48 -29 -94
-24 -89 -25 -95 -42 -186 -5 -33 -13 -71 -16 -85 -11 -43 -13 -1251 -2 -1305
20 -105 24 -121 44 -180 37 -108 120 -245 202 -333 27 -28 51 -52 54 -52 3 0
26 -19 52 -42 25 -24 63 -52 84 -63 21 -11 40 -22 43 -25 13 -14 122 -60 185
-79 132 -39 186 -44 467 -44 l238 0 5 -31 c3 -17 7 -57 10 -90 3 -32 7 -61 9
-65 2 -3 7 -23 10 -44 8 -48 39 -166 61 -232 55 -162 182 -415 208 -415 6 0 8
-3 4 -6 -13 -13 98 -158 204 -266 36 -38 63 -68 61 -68 -3 0 8 -10 24 -22 15
-13 40 -34 55 -48 33 -32 55 -49 99 -80 19 -13 37 -27 40 -30 3 -3 23 -17 45
-30 22 -13 42 -26 45 -29 9 -10 62 -39 165 -90 85 -43 112 -55 145 -66 3 -1
19 -8 35 -15 29 -13 42 -17 68 -23 6 -1 18 -6 25 -10 6 -5 16 -6 21 -2 5 3 12
1 15 -4 3 -5 23 -12 43 -16 21 -5 45 -10 53 -12 16 -4 19 -5 155 -30 81 -14
247 -16 1615 -17 839 -1 1548 2 1575 6 98 15 114 19 220 60 44 17 91 39 105
48 14 10 35 21 48 24 12 4 22 11 22 16 0 5 8 11 18 14 10 4 40 26 67 51 26 25
52 45 56 45 5 0 9 4 9 8 0 4 22 32 49 61 46 50 122 166 120 185 0 5 3 12 8 15
12 8 40 69 49 106 4 17 11 36 17 43 5 6 7 12 4 12 -3 0 -2 14 3 32 23 77 25
147 25 723 0 622 -3 685 -41 838 -3 12 -6 31 -8 42 -4 28 -45 161 -66 215 -21
52 -27 71 -28 84 0 5 -4 12 -9 15 -4 3 -28 46 -52 95 -46 93 -154 259 -217
336 -45 53 -225 233 -274 273 -78 62 -251 173 -340 216 -121 60 -276 120 -322
125 -13 2 -16 12 -23 91 -8 92 -10 110 -30 232 -2 13 -6 26 -9 31 -3 5 -8 24
-11 43 -6 35 -30 119 -45 154 -4 11 -18 47 -31 80 -12 33 -38 92 -57 130 -19
39 -42 85 -50 103 -9 17 -20 32 -24 32 -4 0 -8 5 -8 10 0 20 -112 178 -162
232 -10 10 -18 21 -18 25 0 12 -202 206 -265 254 -85 65 -245 169 -260 169 -7
0 -15 3 -17 8 -4 10 -135 72 -153 72 -8 0 -15 5 -15 10 0 6 -9 10 -19 10 -11
0 -23 5 -26 10 -3 6 -16 10 -29 10 -12 0 -26 4 -32 9 -10 11 -171 55 -254 70
-30 6 -64 12 -75 15 -96 20 -1000 31 -988 12 4 -5 1 -6 -8 0 -10 6 -1214 14
-1222 8z"/>
</g>
</svg>
